<?xml version="1.0" encoding="utf-8"?>
<!-- Generator: Adobe Illustrator 22.0.1, SVG Export Plug-In . SVG Version: 6.00 Build 0)  -->
<svg version="1.1" id="Layer_1" xmlns="http://www.w3.org/2000/svg" xmlns:xlink="http://www.w3.org/1999/xlink" x="0px" y="0px"
	 viewBox="0 0 766 402" style="enable-background:new 0 0 766 402;" xml:space="preserve">
<style type="text/css">
	.st0{fill:none;}
	.st1{fill:#2274A5;stroke:#FFFFFF;lack;stroke-width:4;stroke-miterlimit:10;}


	

</style>

<g>
	<rect x="-47.7" y="113.1" class="st0" width="193.8" height="23"/>
</g>
<g>
	<path class="st1" d="M31,283.2h53.6l23.1-44.3l30.2-61.1c10.2-20.6,20-41,29.6-61.3c9.5-20.3,18.7-40.9,27.6-61.9l0.3-0.6
		c1.3-2.4,3.1-4.3,5.4-5.7c2.3-1.3,4.7-2,7.3-2c5,0,8.6,1.5,10.9,4.6c2.3,3.1,3.4,6.3,3.4,9.8l-4.9,41.9
		c-2.6,21.2-5.1,42.1-7.5,62.6c-2.4,20.6-5,41.4-7.8,62.3l-7.5,56.2l145.9,0.9c3.9,0,7.3,1.3,10.1,4c2.8,2.6,4.2,5.8,4.2,9.5
		s-1.5,6.8-4.5,9.5c-3,2.6-6.5,3.9-10.4,3.7l-147.8-6.4c-0.4,1-0.6,1.9-0.6,2.8c0,0.8-0.1,1.7-0.3,2.8c-1.7,14.1-3.5,28-5.4,41.7
		c-1.8,13.8-3.7,27.5-5.7,41.4c-0.2,2.6-2.1,4-5.5,4c-2.6-0.4-3.9-1.8-3.9-4.3v-0.6l6.2-83.4c0-1,0.1-1.9,0.2-2.6
		c0.1-0.7,0.3-1.6,0.5-2.6l-90.3-4l-2.3,4c-0.9,1.4-2.3,2.1-4.2,2.1c-1.5,0-2.7-0.5-3.6-1.4c-0.9-0.9-1.3-2-1.3-3.2
		c0-0.8,0.1-1.4,0.3-1.8l-45.5-2.1c-5-0.4-7.5-3-7.5-7.6c0.2-1.8,1-3.4,2.4-4.7C27,283.8,28.8,283.2,31,283.2z M183.4,225.7
		l6.8-102.4l-1.6,2.7c-5.6,10-11.2,20-16.7,29.9c-5.5,10-11.1,19.9-16.7,29.6l-52.3,88.9c-2.2,3.1-4,6-5.5,8.9l81.6,0.3L183.4,225.7
		z"/>
	<path class="st1" d="M237,298.1h34.8l67.3-209c1.1-2.9,2.9-5.1,5.4-6.9c2.5-1.7,5.2-2.6,8.3-2.6c4.1,0,7.5,1.3,10.2,4
		c2.7,2.6,4.1,5.7,4.1,9.2c0,1-0.2,2.3-0.6,4l-83.8,200.7l207.6-3.1c4.1,0,7.5,1.2,10.1,3.7s3.9,5.7,3.9,9.8c0,3.5-1.4,6.5-4.1,9
		c-2.7,2.5-5.9,3.9-9.6,4.1c-0.4,0-0.8-0.1-1-0.3l-252.8-10.4c-1.7,0-3.2-0.7-4.5-2c-1.3-1.3-1.9-2.8-1.9-4.4
		C230.6,300.1,232.9,298.1,237,298.1z"/>
	<path class="st1" d="M400.4,327.8c13.2-13.4,26.9-26.6,41.1-39.6c14.2-12.9,28.6-25.7,43.2-38.2c14.6-12.5,29.4-24.8,44.2-37
		c14.8-12.1,29.5-24.3,44-36.5l1.6-1.2l-28.9-92.6c-0.4-1.6-0.6-2.7-0.6-3.4c0-3.7,1.3-6.9,3.9-9.6s6.1-4.1,10.4-4.1
		c3,0,5.8,0.9,8.3,2.8c2.5,1.8,4.3,4.2,5.4,7c0,0.2,0.1,0.4,0.3,0.6l20.1,83.4l23.1-19.9c10.4-9.4,20.7-18.8,31-28.4
		c10.3-9.6,20.1-19.4,29.6-29.6c9.4-10.2,18.3-20.7,26.6-31.6c8.3-10.9,15.8-22.3,22.3-34.1c2.8-4.9,7-7.3,12.7-7.3
		c4.1,0,7.5,1.4,10.2,4.1c2.7,2.8,4.1,5.9,4.1,9.3c0,1.8-0.7,4.1-2,6.7c-1.3,2.6-2.9,5.4-4.9,8.2c-1.9,2.9-4,5.7-6.2,8.6
		c-2.2,2.9-4,5.3-5.5,7.3c-9.3,12.6-19.4,24.6-30.4,36.1c-10.9,11.4-22.3,22.4-34,33c-11.7,10.6-23.7,20.7-35.9,30.4
		c-12.2,9.7-24.2,19.1-35.9,28.3l38,155.8v1.2c0,1.4-0.5,2.6-1.6,3.7c-1.1,1-2.4,1.5-3.9,1.5c-2.8,0-4.5-1.3-5.2-4l-45.2-144.2
		c-29.7,22.8-59.1,45.5-88.2,68.1c-29.1,22.6-57.2,46.4-84.3,71.5c-1.1,1-2.4,1.5-3.9,1.5c-1.3,0-2.5-0.5-3.6-1.4
		c-1.1-0.9-1.6-2-1.6-3.2C398.8,329.9,399.4,328.8,400.4,327.8z"/>
</g>
</svg>
