<svg id="Layer_1" data-name="Layer 1" xmlns="http://www.w3.org/2000/svg" viewBox="0 0 813.7 402"><defs><style>.cls-1{fill:#2274a5;}.cls-2{fill:none;}</style></defs><title>alx1</title><rect class="cls-1" x="47.9" width="765.8" height="402"/><path d="M34.5,281.1H88.1l23.1-44.3,30.2-61.1c10.2-20.6,20-41,29.6-61.3s18.7-40.9,27.6-61.9l.3-.6a14.8,14.8,0,0,1,5.4-5.7,14.57,14.57,0,0,1,7.3-2c5,0,8.6,1.5,10.9,4.6a16,16,0,0,1,3.4,9.8L221,100.5q-3.9,31.8-7.5,62.6t-7.8,62.3l-7.5,56.2,145.9.9a14,14,0,0,1,10.1,4,12.53,12.53,0,0,1,4.2,9.5,12.31,12.31,0,0,1-4.5,9.5,14.37,14.37,0,0,1-10.4,3.7l-147.8-6.4a7.44,7.44,0,0,0-.6,2.8,15.75,15.75,0,0,1-.3,2.8q-2.55,21.15-5.4,41.7c-1.8,13.8-3.7,27.5-5.7,41.4-.2,2.6-2.1,4-5.5,4-2.6-.4-3.9-1.8-3.9-4.3v-.6l6.2-83.4a18.36,18.36,0,0,1,.2-2.6c.1-.7.3-1.6.5-2.6l-90.3-4-2.3,4a4.64,4.64,0,0,1-4.2,2.1,4.9,4.9,0,0,1-3.6-1.4,4.38,4.38,0,0,1-1.3-3.2,4.18,4.18,0,0,1,.3-1.8l-45.5-2.1c-5-.4-7.5-3-7.5-7.6a7.4,7.4,0,0,1,2.4-4.7A6.36,6.36,0,0,1,34.5,281.1Zm152.4-57.5,6.8-102.4-1.6,2.7c-5.6,10-11.2,20-16.7,29.9s-11.1,19.9-16.7,29.6l-52.3,88.9a74.39,74.39,0,0,0-5.5,8.9l81.6.3Z" transform="translate(47.7)"/><path d="M240.5,296h34.8L342.6,87a14.71,14.71,0,0,1,5.4-6.9,14.33,14.33,0,0,1,8.3-2.6,13.79,13.79,0,0,1,10.2,4,12.47,12.47,0,0,1,4.1,9.2,18.39,18.39,0,0,1-.6,4L286.2,295.4l207.6-3.1a14,14,0,0,1,10.1,3.7,12.88,12.88,0,0,1,3.9,9.8,11.89,11.89,0,0,1-4.1,9,15,15,0,0,1-9.6,4.1,1.49,1.49,0,0,1-1-.3L240.3,308.2a6.24,6.24,0,0,1-4.5-2,6.07,6.07,0,0,1-1.9-4.4C234.1,298,236.4,296,240.5,296Z" transform="translate(47.7)"/><path d="M403.9,325.7q19.8-20.1,41.1-39.6c14.2-12.9,28.6-25.7,43.2-38.2s29.4-24.8,44.2-37,29.5-24.3,44-36.5l1.6-1.2L549.1,80.6a16.06,16.06,0,0,1-.6-3.4,13.37,13.37,0,0,1,3.9-9.6,13.85,13.85,0,0,1,10.4-4.1,13.41,13.41,0,0,1,8.3,2.8,15.48,15.48,0,0,1,5.4,7,.86.86,0,0,0,.3.6l20.1,83.4L620,137.4c10.4-9.4,20.7-18.8,31-28.4s20.1-19.4,29.6-29.6,18.3-20.7,26.6-31.6a277.18,277.18,0,0,0,22.3-34.1,13.63,13.63,0,0,1,12.7-7.3,13.87,13.87,0,0,1,10.2,4.1,13.18,13.18,0,0,1,4.1,9.3,16,16,0,0,1-2,6.7,61,61,0,0,1-4.9,8.2c-1.9,2.9-4,5.7-6.2,8.6s-4,5.3-5.5,7.3a370,370,0,0,1-30.4,36.1c-10.9,11.4-22.3,22.4-34,33s-23.7,20.7-35.9,30.4-24.2,19.1-35.9,28.3l38,155.8v1.2a5,5,0,0,1-1.6,3.7,5.61,5.61,0,0,1-3.9,1.5,4.84,4.84,0,0,1-5.2-4L583.8,192.4q-44.55,34.2-88.2,68.1T411.3,332a5.57,5.57,0,0,1-7.5.1,4,4,0,0,1-1.6-3.2A5.33,5.33,0,0,1,403.9,325.7Z" transform="translate(47.7)"/><rect class="cls-2" y="113.1" width="193.8" height="23"/></svg>