<?xml version="1.0" encoding="utf-8"?>
<!-- Generator: Adobe Illustrator 22.0.1, SVG Export Plug-In . SVG Version: 6.00 Build 0)  -->
<svg version="1.1" id="Layer_1" xmlns="http://www.w3.org/2000/svg" xmlns:xlink="http://www.w3.org/1999/xlink" x="0px" y="0px"
	 viewBox="0 0 813.7 402" style="enable-background:new 0 0 813.7 402;" xml:space="preserve">
<style type="text/css">
	.st0{fill:#2274A5;}
	.st1{fill:#C9F0FF;}
	.st2{fill:none;}
</style>
<title>alx1</title>
<rect x="47.9" class="st0" width="765.8" height="402"/>
<path class="st1" d="M82.2,281.1h53.6l23.1-44.3l30.2-61.1c10.2-20.6,20-41,29.6-61.3s18.7-40.9,27.6-61.9l0.3-0.6
	c1.3-2.4,3.1-4.3,5.4-5.7c2.2-1.3,4.7-2,7.3-2c5,0,8.6,1.5,10.9,4.6c2.2,2.8,3.4,6.2,3.4,9.8l-4.9,41.9c-2.6,21.2-5.1,42.1-7.5,62.6
	c-2.4,20.5-5,41.3-7.8,62.3l-7.5,56.2l145.9,0.9c3.8-0.1,7.4,1.4,10.1,4c2.7,2.4,4.2,5.9,4.2,9.5c0,3.7-1.7,7.2-4.5,9.5
	c-2.8,2.6-6.6,3.9-10.4,3.7l-147.8-6.4c-0.4,0.9-0.6,1.8-0.6,2.8c0,0.9-0.1,1.9-0.3,2.8c-1.7,14.1-3.5,28-5.4,41.7
	c-1.8,13.8-3.7,27.5-5.7,41.4c-0.2,2.6-2.1,4-5.5,4c-2.6-0.4-3.9-1.8-3.9-4.3v-0.6l6.2-83.4c0-0.9,0.1-1.7,0.2-2.6
	c0.1-0.7,0.3-1.6,0.5-2.6l-90.3-4l-2.3,4c-0.9,1.4-2.5,2.2-4.2,2.1c-1.3,0-2.6-0.5-3.6-1.4c-0.9-0.8-1.3-2-1.3-3.2
	c0-0.6,0.1-1.2,0.3-1.8L82,295.6c-5-0.4-7.5-3-7.5-7.6c0.2-1.8,1-3.5,2.4-4.7C78.2,281.8,80.2,280.9,82.2,281.1z M234.6,223.6
	l6.8-102.4l-1.6,2.7c-5.6,10-11.2,20-16.7,29.9s-11.1,19.9-16.7,29.6l-52.3,88.9c-2,2.8-3.9,5.8-5.5,8.9l81.6,0.3L234.6,223.6z"/>
<path class="st1" d="M288.2,296H323l67.3-209c1.1-2.8,2.9-5.2,5.4-6.9c2.4-1.7,5.3-2.6,8.3-2.6c3.8-0.1,7.5,1.3,10.2,4
	c2.6,2.4,4.1,5.7,4.1,9.2c-0.1,1.4-0.3,2.7-0.6,4l-83.8,200.7l207.6-3.1c3.7-0.2,7.4,1.2,10.1,3.7c2.6,2.6,4.1,6.1,3.9,9.8
	c0,3.5-1.5,6.7-4.1,9c-2.6,2.5-6,3.9-9.6,4.1c-0.4,0-0.7-0.1-1-0.3L288,308.2c-1.7,0-3.3-0.7-4.5-2c-1.2-1.1-1.9-2.7-1.9-4.4
	C281.8,298,284.1,296,288.2,296z"/>
<path class="st1" d="M451.6,325.7c13.2-13.4,26.9-26.6,41.1-39.6c14.2-12.9,28.6-25.7,43.2-38.2c14.6-12.5,29.4-24.8,44.2-37
	s29.5-24.3,44-36.5l1.6-1.2l-28.9-92.6c-0.3-1.1-0.5-2.2-0.6-3.4c0-3.6,1.4-7.1,3.9-9.6c2.7-2.8,6.5-4.3,10.4-4.1c3,0,5.9,1,8.3,2.8
	c2.4,1.8,4.3,4.2,5.4,7c0,0.2,0.1,0.4,0.3,0.6l20.1,83.4l23.1-19.9c10.4-9.4,20.7-18.8,31-28.4s20.1-19.4,29.6-29.6
	s18.3-20.7,26.6-31.6c8.3-10.8,15.7-22.2,22.3-34.1c2.5-4.7,7.4-7.5,12.7-7.3c3.8-0.1,7.5,1.4,10.2,4.1c2.6,2.4,4,5.8,4.1,9.3
	c-0.2,2.4-0.8,4.6-2,6.7c-1.4,2.9-3.1,5.6-4.9,8.2c-1.9,2.9-4,5.7-6.2,8.6s-4,5.3-5.5,7.3c-9.4,12.7-19.5,24.7-30.4,36.1
	c-10.9,11.4-22.3,22.4-34,33s-23.7,20.7-35.9,30.4s-24.2,19.1-35.9,28.3l38,155.8v1.2c0,1.4-0.6,2.7-1.6,3.7c-1.1,1-2.5,1.5-3.9,1.5
	c-2.5,0.2-4.8-1.5-5.2-4l-45.2-144.2c-29.7,22.8-59.1,45.5-88.2,68.1S486.1,306.9,459,332c-2.1,2-5.3,2-7.5,0.1
	c-1-0.8-1.6-1.9-1.6-3.2C450.1,327.7,450.7,326.5,451.6,325.7z"/>
<rect y="113.1" class="st2" width="193.8" height="23"/>
</svg>
